# This file uses centimeters as units for non-parametric coordinates.

mtllib hikouki.mtl
g default
v -5.000000 1.750000 3.750000
v 5.000000 1.750000 3.750000
v -5.000000 3.750000 2.750000
v 5.000000 3.750000 2.750000
v -12.250000 4.250000 -4.000000
v 12.250000 4.250000 -4.000000
v -15.750000 3.000000 -5.250000
v 15.750000 3.000000 -5.250000
v 0.000000 1.750000 5.000000
v 0.000000 1.750000 -14.250000
v 0.000000 3.750000 -11.250000
v 0.000000 3.750000 5.000000
v -5.000000 2.750000 3.750000
v 5.000000 2.750000 3.750000
v 15.000000 3.500000 -5.000000
v 0.000000 3.000000 -12.250000
v -15.000000 3.500000 -5.000000
v 2.500000 1.750000 5.000000
v 2.500000 2.250000 5.000000
v 2.250000 3.750000 4.500000
v 2.500000 3.750000 -5.000000
v 2.500000 3.000000 -5.000000
v 3.000000 1.750000 -5.500000
v -2.500000 1.750000 5.000000
v -2.500000 2.250000 5.000000
v -2.250000 3.750000 4.500000
v -2.500000 3.750000 -5.000000
v -2.500000 3.000000 -5.000000
v -3.000000 1.750000 -5.500000
v -10.250000 3.750000 -1.500000
v -2.500000 3.750000 0.000000
v 2.500000 3.750000 0.000000
v 10.250000 3.750000 -1.500000
v 10.250000 2.750000 0.000000
v 10.250000 2.000000 0.000000
v 2.500000 1.750000 0.000000
v 0.000000 1.750000 0.000000
v -2.500000 1.750000 0.000000
v -10.250000 2.000000 0.000000
v -10.250000 2.750000 0.000000
v 0.000000 3.250000 7.000000
v 0.000000 2.250000 7.750000
v 1.500000 2.250000 7.750000
v 1.500000 3.250000 7.000000
v 1.500000 1.750000 7.750000
v 0.000000 1.750000 7.750000
v -1.500000 1.750000 7.750000
v -1.500000 2.250000 7.750000
v -1.500000 3.250000 7.000000
v 0.000000 4.750000 -8.500000
v 0.000000 5.500000 0.000000
v 1.500000 5.250000 0.000000
v 1.500000 4.750000 -5.000000
v -1.500000 5.250000 0.000000
v -1.500000 4.750000 -5.000000
v -1.500000 5.250000 3.250000
v 0.000000 5.500000 3.000000
v 1.500000 5.250000 3.250000
vt 0.375000 0.000000
vt 0.625000 0.000000
vt 0.375000 0.250000
vt 0.625000 0.250000
vt 0.375000 0.500000
vt 0.625000 0.500000
vt 0.375000 0.750000
vt 0.625000 0.750000
vt 0.375000 1.000000
vt 0.625000 1.000000
vt 0.875000 0.000000
vt 0.875000 0.250000
vt 0.125000 0.000000
vt 0.125000 0.250000
vt 0.500000 0.000000
vt 0.500000 1.000000
vt 0.500000 0.750000
vt 0.500000 0.500000
vt 0.500000 0.250000
vt 0.375000 0.125000
vt 0.500000 0.125000
vt 0.625000 0.125000
vt 0.625000 0.625000
vt 0.875000 0.125000
vt 0.500000 0.625000
vt 0.125000 0.125000
vt 0.375000 0.625000
vt 0.562500 0.000000
vt 0.562500 1.000000
vt 0.562500 0.125000
vt 0.562500 0.250000
vt 0.562500 0.500000
vt 0.562500 0.625000
vt 0.562500 0.750000
vt 0.437500 0.000000
vt 0.437500 1.000000
vt 0.437500 0.125000
vt 0.437500 0.250000
vt 0.437500 0.500000
vt 0.437500 0.625000
vt 0.437500 0.750000
vt 0.250000 0.250000
vt 0.375000 0.375000
vt 0.437500 0.375000
vt 0.500000 0.375000
vt 0.562500 0.375000
vt 0.625000 0.375000
vt 0.750000 0.250000
vt 0.750000 0.125000
vt 0.625000 0.875000
vt 0.750000 0.000000
vt 0.562500 0.875000
vt 0.500000 0.875000
vt 0.437500 0.875000
vt 0.250000 0.000000
vt 0.375000 0.875000
vt 0.250000 0.125000
vt 0.562500 0.125000
vt 0.562500 0.250000
vt 0.500000 0.250000
vt 0.562500 0.000000
vt 0.500000 0.000000
vt 0.437500 0.125000
vt 0.437500 0.000000
vt 0.437500 0.250000
vt 0.562500 0.375000
vt 0.562500 0.500000
vt 0.500000 0.500000
vt 0.437500 0.500000
vt 0.437500 0.375000
vt 0.437500 0.250000
vt 0.500000 0.250000
vt 0.562500 0.250000
vn 0.000000 0.600000 0.800000
vn 0.000000 0.447214 0.894427
vn 0.000000 0.600000 0.800000
vn 0.000000 0.447214 0.894427
vn 0.000000 0.996130 -0.087894
vn 0.000000 0.998022 -0.062859
vn 0.198464 0.976248 -0.086898
vn 0.164091 0.984545 -0.061205
vn 0.501406 0.000000 -0.865212
vn 0.434969 0.348509 -0.830267
vn 0.000000 0.786184 -0.617993
vn 0.000000 0.842527 -0.538654
vn 0.020893 -0.999777 -0.003034
vn 0.000000 -1.000000 0.000000
vn 0.029843 -0.999378 -0.018783
vn 0.000000 -1.000000 0.000000
vn 0.422506 0.754137 0.502758
vn 0.551107 0.515861 0.655872
vn 0.392248 0.779474 0.488427
vn 0.511227 0.593887 0.621245
vn -0.511227 0.593887 0.621245
vn -0.551107 0.515861 0.655872
vn -0.392248 0.779474 0.488427
vn -0.422506 0.754137 0.502758
vn -0.098872 -0.991441 -0.085266
vn -0.029843 -0.999378 -0.018783
vn -0.080515 -0.994723 -0.063589
vn -0.020893 -0.999777 -0.003034
vn -0.501406 0.000000 -0.865212
vn -0.434969 0.348509 -0.830267
vn 0.028717 0.751384 -0.659240
vn 0.024996 0.513852 -0.857515
vn 0.000000 1.000000 0.000000
vn 0.010751 0.999659 0.023805
vn 0.037692 0.995798 0.083460
vn 0.065505 0.987254 0.145047
vn -0.395016 0.241102 0.886472
vn -0.380272 0.432682 0.817422
vn -0.433301 0.411616 0.801762
vn -0.410347 0.644831 0.644831
vn -0.447214 0.000000 0.894427
vn -0.447214 0.000000 0.894427
vn 0.000000 0.000000 1.000000
vn 0.000000 0.000000 1.000000
vn 0.650650 0.015998 0.759209
vn 0.552455 0.492406 0.672554
vn 0.000000 0.847998 -0.529999
vn 0.375220 0.470687 -0.798538
vn -0.375220 0.470687 -0.798538
vn 0.023275 0.418945 -0.907713
vn -0.552455 0.492406 0.672554
vn -0.650650 0.015998 0.759209
vn 0.433301 0.411616 0.801762
vn 0.395016 0.241102 0.886472
vn 0.447214 0.000000 0.894427
vn 0.447214 0.000000 0.894427
vn 0.380272 0.432682 0.817422
vn 0.410347 0.644831 0.644831
vn 0.000000 1.000000 0.000000
vn -0.037692 0.995798 0.083460
vn -0.010751 0.999659 0.023805
vn -0.065505 0.987254 0.145047
vn -0.024996 0.513852 -0.857515
vn -0.028717 0.751384 -0.659240
vn -0.023275 0.418945 -0.907713
vn 0.080515 -0.994723 -0.063589
vn 0.098872 -0.991441 -0.085266
vn 0.000000 0.447214 0.894427
vn 0.000000 0.000000 1.000000
vn 0.000000 0.600000 0.800000
vn -0.164091 0.984545 -0.061205
vn -0.198464 0.976248 -0.086898
vn 0.000000 1.000000 0.000000
vn 0.000000 1.000000 0.000000
vn 0.000000 1.000000 0.000000
vn -0.164399 0.986394 0.000000
vn 0.164399 0.986394 0.000000
vn 0.000000 1.000000 0.000000
vn 0.000000 1.000000 0.000000
vn 0.549091 0.327960 0.768727
vn 0.445489 0.652220 0.613309
vn 0.581238 0.000000 0.813733
vn 0.000000 -1.000000 0.000000
vn 0.022961 -0.999619 -0.015308
vn 0.000000 -1.000000 0.000000
vn 0.000000 -1.000000 0.000000
vn -0.022961 -0.999619 -0.015308
vn -0.549091 0.327960 0.768727
vn -0.581238 0.000000 0.813733
vn -0.445489 0.652220 0.613309
vn 0.909398 0.259828 0.324785
vn 0.910076 0.251949 0.329064
vn 0.909603 0.257539 0.326032
vn 0.910366 0.248282 0.331042
vn 0.046512 0.976744 0.209302
vn 0.035424 0.975462 0.217298
vn 0.029239 0.974668 0.221738
vn 0.000000 0.970143 0.242536
vn 0.939793 0.000000 0.341743
vn 0.939793 0.000000 0.341743
vn 0.939793 0.000000 0.341743
vn 0.939793 0.000000 0.341743
vn 0.000000 -1.000000 0.000000
vn 0.000000 -1.000000 0.000000
vn 0.000000 -1.000000 0.000000
vn 0.000000 -1.000000 0.000000
vn -0.939793 0.000000 0.341743
vn -0.939793 0.000000 0.341743
vn -0.939793 0.000000 0.341743
vn -0.939793 0.000000 0.341743
vn 0.000000 -1.000000 0.000000
vn 0.000000 -1.000000 0.000000
vn 0.000000 -1.000000 0.000000
vn 0.000000 -1.000000 0.000000
vn -0.909398 0.259828 0.324785
vn -0.909603 0.257539 0.326032
vn -0.910076 0.251949 0.329064
vn -0.910366 0.248282 0.331042
vn -0.046512 0.976744 0.209302
vn -0.029239 0.974668 0.221738
vn -0.035424 0.975462 0.217298
vn 0.000000 0.970143 0.242536
vn 0.707107 0.707107 0.000000
vn 0.742013 0.670232 -0.014356
vn 0.815253 0.577144 -0.047622
vn 0.830773 0.553849 -0.055385
vn 0.649570 0.714527 -0.259828
vn 0.651481 0.712023 -0.261908
vn 0.666483 0.691559 -0.278471
vn 0.676716 0.676716 -0.290021
vn -0.707107 0.707107 0.000000
vn -0.815253 0.577144 -0.047622
vn -0.742013 0.670232 -0.014356
vn -0.830773 0.553849 -0.055385
vn -0.649570 0.714527 -0.259828
vn -0.666483 0.691559 -0.278471
vn -0.651481 0.712023 -0.261908
vn -0.676716 0.676716 -0.290021
vn -0.876544 0.478853 0.048697
vn -0.869013 0.493189 0.039763
vn -0.849561 0.527180 0.018089
vn -0.832050 0.554700 0.000000
vn -0.159490 0.677834 0.717707
vn -0.106768 0.707851 0.698246
vn -0.084973 0.719356 0.689425
vn -0.015677 0.752484 0.658424
vn 0.159490 0.677834 0.717707
vn 0.084973 0.719356 0.689425
vn 0.106768 0.707851 0.698246
vn 0.015677 0.752484 0.658424
vn 0.876544 0.478853 0.048697
vn 0.849561 0.527180 0.018089
vn 0.869013 0.493189 0.039763
vn 0.832050 0.554700 0.000000
s 1
g pCube1
usemtl initialShadingGroup
f 41/60/1 42/21/2 44/59/3
f 44/59/3 42/21/2 43/58/4
s 2
f 50/68/5 51/45/6 53/67/7
f 53/67/7 51/45/6 52/66/8
s 3
f 21/32/9 22/33/10 11/18/11
f 11/18/11 22/33/10 16/25/12
s 4
f 36/52/13 37/53/14 23/34/15
f 23/34/15 37/53/14 10/17/16
s 5
f 33/48/17 34/49/18 6/12/19
f 6/12/19 34/49/18 15/24/20
s 6
f 17/26/21 40/57/22 5/14/23
f 5/14/23 40/57/22 30/42/24
s 4
f 7/7/25 29/41/26 39/56/27
f 39/56/27 29/41/26 38/54/28
s 3
f 27/39/29 28/40/30 5/5/31
f 5/5/31 28/40/30 17/27/32
s 9
f 31/44/33 27/39/34 30/43/35
f 30/43/35 27/39/34 5/5/36
s 10
f 25/37/37 26/38/38 13/20/39
f 13/20/39 26/38/38 3/3/40
f 24/35/41 25/37/37 1/1/42
f 1/1/42 25/37/37 13/20/39
s 1
f 45/61/43 43/58/4 46/62/44
f 46/62/44 43/58/4 42/21/2
s 5
f 34/49/18 35/51/45 15/24/20
f 15/24/20 35/51/45 8/11/46
s 3
f 10/17/47 16/25/12 23/34/48
f 23/34/48 16/25/12 22/33/10
f 28/40/30 29/41/49 17/27/32
f 17/27/32 29/41/49 7/7/50
s 6
f 7/13/51 39/55/52 17/26/21
f 17/26/21 39/55/52 40/57/22
s 12
f 14/22/53 19/30/54 2/2/55
f 2/2/55 19/30/54 18/28/56
f 19/30/54 14/22/53 20/31/57
f 20/31/57 14/22/53 4/4/58
s 13
f 32/46/59 33/47/60 21/32/61
f 21/32/61 33/47/60 6/6/62
s 3
f 15/23/63 22/33/10 6/6/64
f 6/6/64 22/33/10 21/32/9
f 22/33/10 15/23/63 23/34/48
f 23/34/48 15/23/63 8/8/65
s 4
f 36/52/13 23/34/15 35/50/66
f 35/50/66 23/34/15 8/8/67
s 1
f 48/63/68 47/64/69 42/21/2
f 42/21/2 47/64/69 46/62/44
f 49/65/70 48/63/68 41/60/1
f 41/60/1 48/63/68 42/21/2
s 2
f 54/70/71 51/45/6 55/69/72
f 55/69/72 51/45/6 50/68/5
s 3
f 27/39/29 11/18/11 28/40/30
f 28/40/30 11/18/11 16/25/12
f 28/40/30 16/25/12 29/41/49
f 29/41/49 16/25/12 10/17/47
s 4
f 38/54/28 29/41/26 37/53/14
f 37/53/14 29/41/26 10/17/16
s 9
f 26/38/73 31/44/33 3/3/74
f 3/3/74 31/44/33 30/43/35
s 2
f 51/45/6 54/70/71 57/72/75
f 57/72/75 54/70/71 56/71/76
f 51/45/6 57/72/75 52/66/8
f 52/66/8 57/72/75 58/73/77
s 13
f 33/47/60 32/46/59 4/4/78
f 4/4/78 32/46/59 20/31/79
s 5
f 14/22/80 34/49/18 4/4/81
f 4/4/81 34/49/18 33/48/17
f 2/2/82 35/51/45 14/22/80
f 14/22/80 35/51/45 34/49/18
s 4
f 18/29/83 36/52/13 2/10/84
f 2/10/84 36/52/13 35/50/66
f 9/16/85 37/53/14 18/29/83
f 18/29/83 37/53/14 36/52/13
f 24/36/86 38/54/28 9/16/85
f 9/16/85 38/54/28 37/53/14
f 39/56/27 38/54/28 1/9/87
f 1/9/87 38/54/28 24/36/86
s 6
f 40/57/22 39/55/52 13/20/88
f 13/20/88 39/55/52 1/1/89
f 30/42/24 40/57/22 3/3/90
f 3/3/90 40/57/22 13/20/88
s 16
f 20/31/91 44/59/92 19/30/93
f 19/30/93 44/59/92 43/58/94
s 17
f 20/31/95 12/19/96 44/59/97
f 44/59/97 12/19/96 41/60/98
s 18
f 18/28/99 19/30/100 45/61/101
f 45/61/101 19/30/100 43/58/102
s 19
f 18/28/103 45/61/104 9/15/105
f 9/15/105 45/61/104 46/62/106
s 20
f 25/37/107 24/35/108 48/63/109
f 48/63/109 24/35/108 47/64/110
s 21
f 24/35/111 9/15/112 47/64/113
f 47/64/113 9/15/112 46/62/114
s 22
f 26/38/115 25/37/116 49/65/117
f 49/65/117 25/37/116 48/63/118
s 23
f 26/38/119 49/65/120 12/19/121
f 12/19/121 49/65/120 41/60/122
s 24
f 21/32/123 53/67/124 32/46/125
f 32/46/125 53/67/124 52/66/126
s 25
f 11/18/127 50/68/128 21/32/129
f 21/32/129 50/68/128 53/67/130
s 26
f 27/39/131 31/44/132 55/69/133
f 55/69/133 31/44/132 54/70/134
s 27
f 11/18/135 27/39/136 50/68/137
f 50/68/137 27/39/136 55/69/138
s 28
f 26/38/139 56/71/140 31/44/141
f 31/44/141 56/71/140 54/70/142
s 29
f 26/38/143 12/19/144 56/71/145
f 56/71/145 12/19/144 57/72/146
s 30
f 20/31/147 58/73/148 12/19/149
f 12/19/149 58/73/148 57/72/150
s 31
f 20/31/151 32/46/152 58/73/153
f 58/73/153 32/46/152 52/66/154
